<?xml version="1.0" standalone="no"?>
<!DOCTYPE svg PUBLIC "-//W3C//DTD SVG 20010904//EN"
 "http://www.w3.org/TR/2001/REC-SVG-20010904/DTD/svg10.dtd">
<svg version="1.0" xmlns="http://www.w3.org/2000/svg"
 width="190.000000pt" height="190.000000pt" viewBox="0 0 190.000000 190.000000"
 preserveAspectRatio="xMidYMid meet">
<metadata>
Created by potrace 1.11, written by Peter Selinger 2001-2013
</metadata>
<g transform="translate(0.000000,190.000000) scale(0.100000,-0.100000)"
fill="#000000" stroke="none">
<path d="M1115 1891 c3 -5 -4 -12 -15 -16 -11 -3 -20 -11 -20 -16 0 -5 -6 -9
-14 -9 -8 0 -25 -13 -39 -29 -14 -17 -28 -27 -31 -24 -3 4 -6 1 -6 -5 0 -7 -7
-12 -16 -12 -9 0 -12 -5 -8 -12 5 -8 2 -9 -9 -5 -10 4 -16 2 -14 -5 1 -7 -10
-18 -25 -25 -16 -8 -28 -18 -28 -23 0 -5 -9 -12 -20 -15 -11 -4 -18 -11 -15
-16 4 -5 1 -9 -6 -9 -6 0 -18 -8 -26 -17 -8 -10 -12 -12 -8 -6 4 9 1 11 -10 7
-9 -4 -14 -13 -11 -20 4 -9 -2 -14 -15 -14 -11 0 -17 -4 -14 -10 3 -5 -1 -10
-10 -10 -8 0 -18 -7 -21 -15 -4 -8 -12 -15 -19 -15 -7 0 -20 -11 -31 -24 -10
-14 -21 -23 -25 -20 -4 2 -10 -3 -13 -12 -3 -8 -10 -12 -16 -9 -5 3 -10 1 -10
-6 0 -9 -3 -9 -14 0 -8 7 -17 8 -20 3 -2 -4 -20 -7 -38 -5 -18 2 -42 4 -52 4
-20 0 -38 -20 -30 -32 2 -4 0 -11 -6 -14 -8 -5 -7 -12 2 -23 8 -9 8 -13 2 -9
-8 5 -14 -6 -17 -31 -9 -69 -19 -107 -30 -121 -10 -12 -9 -13 2 -6 11 6 13 4
8 -9 -4 -10 -7 -20 -7 -22 0 -3 -4 -3 -8 0 -4 2 -6 -11 -4 -31 3 -23 0 -38 -9
-44 -12 -7 -11 -9 1 -9 12 0 12 -2 2 -9 -7 -4 -14 -27 -15 -49 -1 -23 -5 -42
-9 -42 -4 0 -5 -9 -3 -20 2 -11 0 -20 -5 -20 -5 0 -7 -6 -4 -14 5 -14 -65 -93
-79 -88 -5 1 -6 -2 -2 -8 3 -5 1 -10 -4 -10 -6 0 -11 -7 -11 -15 0 -8 -6 -14
-12 -12 -7 1 -12 -4 -11 -10 2 -7 -3 -13 -10 -13 -15 0 -53 -41 -49 -54 2 -5
-4 -6 -13 -2 -9 3 -13 2 -10 -4 3 -6 1 -10 -4 -10 -6 0 -11 -7 -11 -17 0 -9
-3 -13 -6 -10 -4 4 -25 -13 -47 -36 -22 -23 -44 -41 -49 -39 -5 1 -7 -2 -3 -8
3 -5 1 -10 -4 -10 -6 0 -11 -7 -11 -16 0 -8 -5 -12 -10 -9 -6 4 -10 -47 -10
-144 0 -94 4 -151 10 -151 6 0 10 -7 10 -15 0 -25 65 -33 82 -10 5 6 8 5 8 -4
0 -9 4 -10 13 -4 6 6 21 9 32 7 10 -1 24 1 30 5 5 5 26 8 46 8 19 0 40 2 45 5
5 2 22 5 38 6 16 1 35 7 42 12 8 8 14 8 19 0 4 -7 12 -7 26 0 13 7 19 7 19 0
0 -5 5 -10 11 -10 6 0 9 6 6 13 -3 8 7 12 32 13 92 3 151 10 151 16 0 4 9 5
20 3 11 -2 20 0 20 4 0 12 33 8 42 -4 5 -6 8 -5 8 2 0 7 6 10 14 7 8 -3 17 0
21 5 3 6 11 9 16 6 5 -4 9 0 9 7 0 9 3 9 10 -2 8 -13 10 -12 10 2 0 10 3 17 8
17 20 -3 32 2 29 14 -1 6 3 11 10 10 7 -2 17 6 23 17 6 11 15 18 21 15 5 -4 9
-1 9 6 0 7 3 10 6 6 7 -7 28 12 37 33 4 12 6 12 6 1 1 -9 8 -6 21 9 13 15 20
18 20 9 0 -11 2 -11 10 1 8 13 10 12 10 -3 0 -10 5 -15 10 -12 6 4 10 3 9 -2
-4 -24 2 -43 13 -37 8 5 9 0 6 -14 -4 -12 -3 -20 2 -17 24 15 55 -88 31 -105
-7 -5 -15 -21 -21 -45 -2 -5 -10 -15 -19 -22 -13 -10 -13 -12 -2 -13 11 0 9
-4 -5 -15 -10 -8 -15 -15 -11 -15 5 0 1 -7 -8 -16 -9 -9 -19 -29 -22 -45 -3
-15 -18 -38 -34 -50 -16 -12 -29 -30 -29 -39 0 -10 -6 -20 -14 -23 -8 -3 -14
-14 -13 -24 1 -17 12 -19 106 -20 64 -1 99 2 90 8 -11 7 -10 9 5 9 11 0 16 3
13 6 -4 4 3 15 15 25 11 11 17 19 13 19 -4 0 0 9 9 19 10 11 15 24 11 30 -4 7
0 8 11 4 12 -4 15 -3 10 5 -4 7 -2 12 4 12 6 0 9 3 7 8 -7 10 19 32 29 24 4
-4 4 -2 1 5 -9 15 2 45 14 37 5 -3 9 2 9 10 0 9 6 16 13 16 8 0 7 4 -3 10 -13
8 -12 10 3 10 9 0 17 7 17 15 0 8 5 15 11 15 6 0 8 7 5 16 -3 8 -2 13 3 10 13
-8 34 21 28 38 -4 11 -1 13 10 9 11 -4 14 -2 9 5 -4 7 -2 12 4 12 6 0 9 3 7 8
-7 10 19 32 27 24 4 -3 4 1 0 11 -3 10 -1 17 5 17 6 0 11 7 11 15 0 8 6 16 13
16 6 1 19 2 27 3 8 1 20 -3 27 -7 7 -5 17 -6 22 -3 5 4 12 2 15 -3 4 -5 14 -8
24 -7 9 2 34 -3 55 -10 24 -8 35 -9 31 -3 -4 7 1 7 15 0 11 -7 21 -10 21 -7 0
2 16 0 35 -4 24 -5 33 -4 28 3 -3 5 -2 7 4 4 21 -13 63 -15 63 -4 0 8 3 8 9
-1 4 -7 19 -13 32 -13 13 1 34 1 47 1 l22 0 0 615 0 616 -29 5 c-17 4 -32 12
-35 20 -3 8 -15 14 -26 14 -12 0 -19 4 -16 8 3 5 -4 14 -14 22 -10 8 -17 17
-15 21 3 4 -7 10 -22 14 -19 4 -23 9 -14 15 10 6 8 9 -8 15 -11 3 -21 11 -21
16 0 5 -5 9 -11 9 -7 0 -20 9 -30 21 -9 11 -21 21 -26 22 -4 1 -7 6 -5 10 1 4
-7 3 -18 -3 -15 -8 -20 -8 -20 1 0 6 -7 9 -15 5 -8 -3 -15 -2 -15 3 0 4 -99 8
-221 9 -132 1 -218 -2 -214 -7z"/>
<path d="M1533 383 c0 -9 4 -10 13 -2 9 8 11 5 7 -10 -4 -15 -1 -21 11 -21 9
0 15 -3 15 -7 -3 -21 2 -33 16 -33 8 0 15 -6 15 -13 0 -7 14 -23 30 -37 17
-14 30 -29 30 -33 0 -11 26 -37 32 -32 3 3 5 -2 5 -10 0 -8 -4 -15 -9 -15 -5
0 -6 -5 -3 -10 3 -5 1 -10 -5 -10 -6 0 -8 -4 -5 -10 3 -5 1 -10 -6 -10 -6 0
-9 -8 -6 -19 4 -15 1 -18 -12 -14 -9 4 -13 3 -9 -2 4 -4 2 -17 -4 -29 -7 -11
-13 -26 -14 -33 -2 -14 18 -13 28 2 5 6 8 5 8 -2 0 -7 7 -13 16 -13 9 0 12 5
8 13 -6 9 -4 9 7 1 16 -13 57 -13 78 0 10 7 12 5 6 -3 -5 -9 0 -12 16 -9 33 4
52 25 46 48 -3 11 0 18 6 17 6 -1 12 7 13 18 0 12 6 31 13 43 9 17 9 22 -1 22
-9 0 -9 3 2 11 11 8 12 12 3 16 -7 2 -13 14 -13 24 0 11 -4 17 -10 14 -6 -3
-7 1 -4 9 3 9 1 16 -5 16 -6 0 -8 7 -4 17 4 11 3 14 -5 9 -8 -5 -12 0 -12 14
0 12 -4 19 -8 16 -4 -2 -9 4 -9 15 -1 10 -9 26 -17 35 -9 9 -14 19 -12 22 2 4
-16 7 -40 8 -26 0 -41 -3 -37 -9 4 -6 1 -7 -7 -2 -22 14 -81 15 -73 1 4 -7 1
-7 -7 1 -11 10 -17 10 -29 0 -12 -10 -13 -9 -7 1 5 9 0 12 -22 10 -16 -1 -29
-8 -29 -15z"/>
</g>
</svg>
